# xmcd
#
# Track frame offsets:
#	150
#	9428
#	21329
#	33247
#	46103
#	56704
#	67237
#	77385
#	87824
#	101372
#	113687
#	125786
#
# Disc length: 1809 seconds
#
# Revision: 0
# Processed by: cddbd v1.5.1PL0 Copyright (c) Steve Scherf et al.
# Submitted via: audiograbber 1.83.01
#
DISCID=90070f0c
DTITLE=Various Artist - The Best Of Country And West Vol.2
DYEAR=1900
DGENRE=
TTITLE0=Chet Atkins - Yakety Axe
TTITLE1=Porter Wagoner - I've Enjoyed As Much Of This As I Can Stand
TTITLE2=Skeeter Davis - What Does It Take
TTITLE3=Jim Reeves - Four Walls
TTITLE4=Connie Smith - Once a Day
TTITLE5=Hank Snow - Spanish Fire Ball
TTITLE6=Bobby Bare - Charleston Railroad Tavern
TTITLE7=Charley Pride - Does My Ring Hurt Your Finger
TTITLE8=Dottie West and th Jordanaires - Mommy, Can I Still Call Him Daddy
TTITLE9=Jim Ed Brown - Bottle, Bottle
TTITLE10=Stu Phillips - The Last Thing On My Mind
TTITLE11=Waylon Jennings and The Waylors - Ruby, Don't Take Your Love To Town
EXTD=
EXTT0=
EXTT1=
EXTT2=
EXTT3=
EXTT4=
EXTT5=
EXTT6=
EXTT7=
EXTT8=
EXTT9=
EXTT10=
EXTT11=
PLAYORDER=
